<svg xmlns="http://www.w3.org/2000/svg" width="2500" height="2500" viewBox="0 0 2500 2500">
  <metadata><?xpacket begin="﻿" id="W5M0MpCehiHzreSzNTczkc9d"?>
<x:xmpmeta xmlns:x="adobe:ns:meta/" x:xmptk="Adobe XMP Core 5.6-c138 79.159824, 2016/09/14-01:09:01        ">
   <rdf:RDF xmlns:rdf="http://www.w3.org/1999/02/22-rdf-syntax-ns#">
      <rdf:Description rdf:about=""/>
   </rdf:RDF>
</x:xmpmeta>
                                                                                                    
                                                                                                    
                                                                                                    
                                                                                                    
                                                                                                    
                                                                                                    
                                                                                                    
                                                                                                    
                                                                                                    
                                                                                                    
                                                                                                    
                                                                                                    
                                                                                                    
                                                                                                    
                                                                                                    
                                                                                                    
                                                                                                    
                                                                                                    
                                                                                                    
                                                                                                    
                           
<?xpacket end="w"?></metadata>
<defs>
    <style>
      .cls-1 {
        fill: #333;
        fill-rule: evenodd;
      }
    </style>
  </defs>
  <path id="Layer_2_copy" data-name="Layer 2 copy" class="cls-1" d="M869,1284s-78.68-95.04-113-179c-24.49-59.91-8-117-8-117s58.674-17.3,118,9c85.71,38,182,124,182,124s-10.19-110.3-46-191c-22.02-49.629-97.314-147.038-314-226-109.73-39.986-242-48-242-48s-0.994,94.25,21,190c45.555,198.32,95.112,317.01,202,382C755.277,1280.46,869,1284,869,1284Z"/>
  <path id="Layer_2_copy_2" data-name="Layer 2 copy 2" class="cls-1" d="M1266,805s-0.62-52.216,12-93c4.99-16.121,22.34-117.212,238-200,103.98-39.916,224-37,224-37s1.89,89.1-28,175c-61.27,176.1-143.4,243.9-178,260-59.53,27.688-136,30-136,30s54.47-56.879,79-116c22.92-55.247,16-113,16-113s-59.41-9.605-114,13C1320.24,748.331,1266,805,1266,805Z"/>
  <path id="Layer_2_copy_3" data-name="Layer 2 copy 3" class="cls-1" d="M1268,1451s136.41-96.32,236-127c91.58-28.21,147,9,147,9s7.51,66-35,142c-54.89,98.14-163,212-163,212s97.13,1.48,181-21c32.41-8.68,182.59-32.32,355-365,76.9-148.39,97-327,97-327s-192.98-13.191-363,30c-324.92,82.54-385.42,208.79-413,270C1273,1356.11,1268,1451,1268,1451Z"/>
  <path class="cls-1" d="M1028,809s-7.2-68.49,2-112c9.3-43.987,35-63,35-63s32.17,12.358,53,42c29.6,42.121,51,106,51,106s20.32-35.812,28-72c1.35-6.372,16.65-89.961-54-191-46.22-66.1-125-125-125-125s-43.007,72.213-63,143c-21.341,75.558-10.326,173.442,7,205C984.017,782.1,1028,809,1028,809Z"/>
  <path id="Layer_2_copy_4" data-name="Layer 2 copy 4" class="cls-1" d="M1128,2126l160-2s-60.93-103.45-102-205c-30.25-74.8-44-156-44-156s85.97-37.09,159-102c83.74-74.43,156-169,156-169s-91.74,88.85-183,144c-68.39,41.33-143,53-143,53s-14.14-96.44-12-186c1.84-76.98,20-149,20-149s22.24-129.07,71-238c60.89-136.033,151-258,151-258s-42.28,42.982-79,90c-28.11,35.991-53,79-53,79s-8.35,7.12-21-6c-16.45-17.06-39.57-58.136-55-89-28.67-57.333-36-129-36-129a910.774,910.774,0,0,0,14,108c6.49,33.613,18.99,69.746,27,100,14.89,56.21,37,75,37,75s-36.01,63.9-62,136c-26.99,74.85-50,155-50,155s0.11,12.75-8-2c-6.4-11.65-10.15-29.04-18-46a377.055,377.055,0,0,0-24-43,682.606,682.606,0,0,0-53-61c-35.774-36.05-78-71-78-71s55.651,60.12,97,135c40.64,73.61,67,162,67,162s5.14,31.13,3,73c-1.71,33.51-10.75,73.66-11,112a1257.718,1257.718,0,0,0,6,127s8.67,108.7,26,207C1104.4,2051.65,1128,2126,1128,2126Z"/>
  <path class="cls-1" d="M1250,0c690.36,0,1250,559.644,1250,1250S1940.36,2500,1250,2500,0,1940.36,0,1250,559.644,0,1250,0Zm0,169c597.02,0,1081,483.98,1081,1081S1847.02,2331,1250,2331,169,1847.02,169,1250,652.98,169,1250,169Z"/>
</svg>
