<svg xmlns="http://www.w3.org/2000/svg" width="2500" height="2500" viewBox="0 0 2500 2500">
  <metadata><?xpacket begin="﻿" id="W5M0MpCehiHzreSzNTczkc9d"?>
<x:xmpmeta xmlns:x="adobe:ns:meta/" x:xmptk="Adobe XMP Core 5.6-c138 79.159824, 2016/09/14-01:09:01        ">
   <rdf:RDF xmlns:rdf="http://www.w3.org/1999/02/22-rdf-syntax-ns#">
      <rdf:Description rdf:about=""/>
   </rdf:RDF>
</x:xmpmeta>
                                                                                                    
                                                                                                    
                                                                                                    
                                                                                                    
                                                                                                    
                                                                                                    
                                                                                                    
                                                                                                    
                                                                                                    
                                                                                                    
                                                                                                    
                                                                                                    
                                                                                                    
                                                                                                    
                                                                                                    
                                                                                                    
                                                                                                    
                                                                                                    
                                                                                                    
                                                                                                    
                           
<?xpacket end="w"?></metadata>
<defs>
    <style>
      .cls-1 {
        fill: #333;
        fill-rule: evenodd;
      }
    </style>
  </defs>
  <path class="cls-1" d="M1661.46,1262.16s21.48-51.04,36.91-100.65a852.873,852.873,0,0,0,21.81-88.07s41.35-31.04,73.82-63.74c24.17-24.34,41.94-52.842,41.94-52.842s11.85-19.818,18.46-41.1c6.81-21.906,8.39-45.292,8.39-45.292l-1.68-221.43H1734.44l-1.68-108.2,231.53,1.677L1971,862.079s-2.81,42.538-15.1,82.2c-18.9,60.994-26.68,75.434-124.99,167.754C1756.57,1181.83,1661.46,1262.16,1661.46,1262.16ZM766.4,647.36l-0.839-105.683L529,540l10.066,340.532s1.689,34.328,8.389,66.261c6.931,33.034,17.4,70.407,61.237,119.1,23.119,25.68,59.457,51.21,89.758,79.69,75.11,70.58,158.544,130,158.544,130s-24.216-48.33-41.1-96.45c-16.665-47.49-26-94.78-26-94.78s-47.518-29.96-83.886-67.94c-28.52-29.789-47.815-69.617-47.815-69.617a299.876,299.876,0,0,1-13.421-36.9,200.469,200.469,0,0,1-5.872-32.711l-0.839-227.3Z"/>
  <path class="cls-1" d="M953.463,1960l635.017-6.71s-6.57-60.18-22.65-115.75c-15.61-53.94-39.19-97.59-114.08-172.78-54.66-54.88-123.32-108.2-123.32-108.2s-2.65-4.71,4.2-10.9c26.07-23.57,91.49-80.79,137.57-136.72,50.94-61.82,85.56-128.33,85.56-128.33s45.94-86.05,68.79-178.65c25.26-102.338,27.68-212.2,27.68-212.2L1643.01,540l-792.727,1.677,7.55,355.63S857.583,1000.46,883,1095.25c27.36,102.05,80.53,196.27,80.53,196.27s31.817,60.67,81.371,116.58c44.94,50.72,119.93,111.25,150.99,137.56,8.56,7.25,2.52,10.9,2.52,10.9s-65.5,56.08-119.12,114.07c-47.6,51.49-90.527,108.15-109.05,171.95C954.494,1896.81,953.463,1960,953.463,1960Z"/>
  <path class="cls-1" d="M1250,0c690.36,0,1250,559.644,1250,1250S1940.36,2500,1250,2500,0,1940.36,0,1250,559.644,0,1250,0Zm0,169c597.02,0,1081,483.98,1081,1081S1847.02,2331,1250,2331,169,1847.02,169,1250,652.98,169,1250,169Z"/>
</svg>
