<svg xmlns="http://www.w3.org/2000/svg" width="2500" height="2500" viewBox="0 0 2500 2500">
  <metadata><?xpacket begin="﻿" id="W5M0MpCehiHzreSzNTczkc9d"?>
<x:xmpmeta xmlns:x="adobe:ns:meta/" x:xmptk="Adobe XMP Core 5.6-c138 79.159824, 2016/09/14-01:09:01        ">
   <rdf:RDF xmlns:rdf="http://www.w3.org/1999/02/22-rdf-syntax-ns#">
      <rdf:Description rdf:about=""/>
   </rdf:RDF>
</x:xmpmeta>
                                                                                                    
                                                                                                    
                                                                                                    
                                                                                                    
                                                                                                    
                                                                                                    
                                                                                                    
                                                                                                    
                                                                                                    
                                                                                                    
                                                                                                    
                                                                                                    
                                                                                                    
                                                                                                    
                                                                                                    
                                                                                                    
                                                                                                    
                                                                                                    
                                                                                                    
                                                                                                    
                           
<?xpacket end="w"?></metadata>
<defs>
    <style>
      .cls-1, .cls-2 {
        fill: #333;
      }

      .cls-2 {
        fill-rule: evenodd;
      }
    </style>
  </defs>
  <rect class="cls-1" x="658" y="768" width="57" height="682"/>
  <rect id="Rectangle_1_copy" data-name="Rectangle 1 copy" class="cls-1" x="1784" y="768" width="57" height="682"/>
  <rect class="cls-1" x="691" y="735" width="1117" height="59"/>
  <rect id="Rectangle_2_copy" data-name="Rectangle 2 copy" class="cls-1" x="691" y="1424" width="1117" height="59"/>
  <circle class="cls-1" cx="691" cy="768" r="33"/>
  <circle id="Ellipse_1_copy" data-name="Ellipse 1 copy" class="cls-1" cx="691" cy="1450" r="33"/>
  <circle id="Ellipse_1_copy_2" data-name="Ellipse 1 copy 2" class="cls-1" cx="1808" cy="768" r="33"/>
  <circle id="Ellipse_1_copy_3" data-name="Ellipse 1 copy 3" class="cls-1" cx="1808" cy="1450" r="33"/>
  <circle id="Ellipse_1_copy_4" data-name="Ellipse 1 copy 4" class="cls-1" cx="510.5" cy="1724.5" r="41.5"/>
  <circle id="Ellipse_1_copy_5" data-name="Ellipse 1 copy 5" class="cls-1" cx="1989.5" cy="1724.5" r="41.5"/>
  <rect class="cls-1" x="505" y="1722" width="1488" height="44"/>
  <path class="cls-2" d="M695,1503H1812v227H695V1503Zm348,104h415.62l42.38,66H1000.62Z"/>
  <rect class="cls-1" x="469" y="1693" width="243" height="37"/>
  <rect id="Rectangle_5_copy" data-name="Rectangle 5 copy" class="cls-1" x="1788" y="1693" width="243" height="37"/>
  <path class="cls-2" d="M1812,1503l219,190-227,4Z"/>
  <path id="Shape_1_copy" data-name="Shape 1 copy" class="cls-2" d="M688,1503L469,1693l227,4Z"/>
  <rect class="cls-1" x="688" y="1503" width="37" height="202"/>
  <path class="cls-2" d="M1250,0c690.36,0,1250,559.644,1250,1250S1940.36,2500,1250,2500,0,1940.36,0,1250,559.644,0,1250,0Zm0,169c597.02,0,1081,483.98,1081,1081S1847.02,2331,1250,2331,169,1847.02,169,1250,652.98,169,1250,169Z"/>
</svg>
