<svg xmlns="http://www.w3.org/2000/svg" width="2500" height="2500" viewBox="0 0 2500 2500">
  <metadata><?xpacket begin="﻿" id="W5M0MpCehiHzreSzNTczkc9d"?>
<x:xmpmeta xmlns:x="adobe:ns:meta/" x:xmptk="Adobe XMP Core 5.6-c138 79.159824, 2016/09/14-01:09:01        ">
   <rdf:RDF xmlns:rdf="http://www.w3.org/1999/02/22-rdf-syntax-ns#">
      <rdf:Description rdf:about=""/>
   </rdf:RDF>
</x:xmpmeta>
                                                                                                    
                                                                                                    
                                                                                                    
                                                                                                    
                                                                                                    
                                                                                                    
                                                                                                    
                                                                                                    
                                                                                                    
                                                                                                    
                                                                                                    
                                                                                                    
                                                                                                    
                                                                                                    
                                                                                                    
                                                                                                    
                                                                                                    
                                                                                                    
                                                                                                    
                                                                                                    
                           
<?xpacket end="w"?></metadata>
<defs>
    <style>
      .cls-1 {
        fill: #333;
        fill-rule: evenodd;
      }
    </style>
  </defs>
  <path class="cls-1" d="M1139,1559c0.52-15.38,5.02-36.59,1-53-17.69-72.18-70.7-121.43-162-110a14.134,14.134,0,0,1-1-4c12.487-15.99,1.64-67.07-4-81-17.261-42.63-42.848-68.25-88-83-14.758-4.82-41.706-9.84-62-5-51.175,12.2-67.031,33.03-98,64q-29.5,28.995-59,58c-7.352,7.35-14.667,14.62-21,23q-7,6.495-14,13c-3.544,4.7-6.521,13.44-13,15-5.3-8.21-13.644-13.86-20-21-8.553-9.61-16.443-19.37-25-29-5.475-6.16-13.149-11.3-18-18-10.062-13.91-17.2-29.01-27-43-33.605-47.95-65.07-95.72-89-154-21.473-52.29-20.408-143.661-2-198,5.964-17.606,9.012-33,16-49,42.985-98.409,118.015-168.294,206-222,35.224-21.5,76.718-34.855,120-48,15.209-4.619,29.42-3.213,46-7,25.544-5.834,69.4-6.066,95,0,15.757,3.734,29.4,2.531,44,7,57.82,17.7,104.17,43.1,149,73,12.8,8.541,25.5,15.234,38,24,11.47,8.043,22.56,17.943,34,26,6.49,4.574,20.16,9.292,22,18L901,1060c0.333,0.33.667,0.67,1,1,5.18,7.74,13.556,14.41,21,20,5.25,3.94,9.652,10.15,15,14,18.3,13.18,39.462,23.05,64,30,10.95,3.1,24.1,3.94,36,4h21c15.36,3.19,48.16-1.77,62-6,87.49-26.71,150.06-75.04,207-132,14.1-14.1,27.92-28.937,40-45,4.5-5.988,11.5-10.979,16-17,4.72-6.314,15.36-25.356,23-27,2.9,8.06,24.19,25.19,31,32q38.49,38.5,77,77c88.61,89.4,176,180,265,269l119,119v24c-4.38,7.29-1.33,19.43-4,28-8.2,26.32-18.7,46.92-40,60-15.24,9.36-64.6,12.71-83,3l-65-65c-70.33-70.34-142.67-138.67-213-209-22.26-22.26-43.05-47.59-68-67-7.11-5.54-11.96-16.74-21-20-5.96,8.88-24.88,19.76-27,30l32,32c20.83,20.83,42.17,41.17,63,62,62.33,62.33,125.67,123.67,188,186q42.495,41.49,85,83v19c-3.14,5.29-2.7,28.36-5,36-6.53,21.69-16.93,42.84-34,54-18.91,12.37-62.99,15.54-89,6-7.03-2.58-11.9-11.14-17-16-16.62-15.82-33.64-30.97-50-47-18.35-17.98-37.79-34.91-57-52-12.37-11-22.6-23.88-36-34l-36-36a246.935,246.935,0,0,1-25-22q-4.995-5.505-10-11c-19.28-14.58-35.93-32.93-54-49-7.15-6.36-12.85-14.64-20-21-14.11-12.55-28.66-24.68-42-38-5.97-5.96-19.7-23.25-28-25-6.18,9.43-23.75,20.11-26,31,9.76,6.4,16.45,16.4,25,24,24.75,22.01,47.67,45.73,72,68,63.11,57.75,126.5,115.6,187,176,21.69,21.65,45.32,41.35,67,63,6.96,6.95,21.04,13.75,22,26,5.43,8.5-1.94,46.94-4,54-11.16,38.22-29.63,61.6-67,73-6.07,1.85-10.08.5-17,2-8.98,1.95-36.01,3.36-43-2-2.97-3.79-2.91-9.15-5-14a145.247,145.247,0,0,0-13-24c-27.12-38.75-72.32-64.88-140-57a14.168,14.168,0,0,1-1-4c10.8-14.1,1.87-63.74-3-77-18.93-51.53-52.18-78.29-109-92C1171.36,1552.98,1153.74,1558.2,1139,1559Zm455-955c73.75-1.68,135.24,15.575,184,40,15.2,7.614,29.93,12.4,44,21,101.82,62.232,181.52,146.335,220,272,4.36,14.25,5.54,29.727,9,44v11c5.8,26.24,4.06,65.48-2,90-5.65,22.86-6.52,42.66-14,63-17.68,48.13-38.79,92.56-64,133-12.65,20.3-24.17,40.51-37,60-4.01,6.09-8.13,19.22-16,21l-43-43c-28.83-28.83-57.17-58.17-86-87-85.5-85.5-169.5-172.5-255-258-31.83-31.834-63.17-64.167-95-96-6.66-6.658-29.12-33.344-37-35-14.75,25.526-35.57,46.824-53,70q-7.005,7-14,14c-14.43,19.077-32.92,38.585-52,53-10.62,8.026-19.24,19.947-30,28-38.11,28.51-77.13,56.17-127,73-40.93,13.81-104.85,16.06-140-3-7.523-4.08-21.757-8.09-23-18q160.98-160.985,322-322c54.16-39.58,118.83-81.712,186-107,24.13-9.084,50.1-13.607,77-20C1557.01,605.858,1588.6,607.43,1594,604ZM833,1264c12.675-.17,25.8-0.94,36,2,44.581,12.86,90.312,65.66,65,127-8.41,20.38-23.619,33.62-38,48-16.067,16.07-34.245,31.8-48,50-4.211,5.57-11.3,8.92-16,14-16.117,17.44-31.716,37.96-54,49-21.084,10.45-58.086,11.89-81,2-40.1-17.31-74.832-76.18-46-130,12.3-22.96,35.109-41.11,53-59l13-12c12.389-16.39,28.583-29.59,43-44,10.561-10.56,20.423-23.64,33-32a113.861,113.861,0,0,1,22-11C820.825,1265.93,828.244,1267.16,833,1264Zm166,171c68.87-1.16,121.95,63.58,94,131-8.39,20.25-24.68,32.68-39,47q-35.01,34.995-70,70c-15.205,15.21-27.948,34.84-49,44-26.846,11.68-67.562,8.9-90-5-33.487-20.74-60.27-75.38-35-124,10.469-20.14,30.037-30.87,43-48,15.7-20.74,36.707-37.71,55-56q20.5-20.505,41-41a111.6,111.6,0,0,1,31-15C985.627,1436.28,994.226,1437.97,999,1435Zm160,163c14.57-.2,27.94-0.05,39,4,41.67,15.24,82.04,65.57,59,125-9.24,23.83-29.35,39.35-46,56-22.83,22.83-45.17,46.17-68,69-13.9,13.9-26.6,29.67-46,38-25.79,11.08-66.96,8.01-88-5-28.324-17.51-60.149-66.32-40-115,11.932-28.83,38.42-47.42,59-68,20.17-20.17,39.83-40.83,60-61q12-12.495,24-25a114.192,114.192,0,0,1,27-14C1145.09,1599.82,1153.78,1601.31,1159,1598Zm154,172c13.48-.18,28.14-1.17,39,2,43.61,12.75,89.48,66.54,64,127-4.52,10.72-12.26,23.02-20,31-2.24,2.31-6.03,3.44-8,6-20.88,27.21-48.85,49.83-73,74-17.32,17.33-32.15,38.31-55,50-23.48,12.01-61.53,10.32-85,0-39.59-17.41-70.91-81.99-40-132,9.13-14.76,22.96-26.96,35-39q4.995-4.5,10-9c15.42-20.38,36.03-37.03,54-55,12.28-12.28,23.73-27.97,38-38a106.533,106.533,0,0,1,25-13C1302.33,1772.22,1308.83,1772.91,1313,1770Z"/>
  <path class="cls-1" d="M1250,0c690.36,0,1250,559.644,1250,1250S1940.36,2500,1250,2500,0,1940.36,0,1250,559.644,0,1250,0Zm0,169c597.02,0,1081,483.98,1081,1081S1847.02,2331,1250,2331,169,1847.02,169,1250,652.98,169,1250,169Z"/>
</svg>
